<svg width="88" height="88" viewBox="0 0 88 88" fill="none" xmlns="http://www.w3.org/2000/svg">
<path d="M69.6667 22H62.3333C62.3333 11.88 54.12 3.66669 44 3.66669C33.88 3.66669 25.6667 11.88 25.6667 22H18.3333C14.3 22 11.0367 25.3 11.0367 29.3334L11 73.3334C11 77.3667 14.3 80.6667 18.3333 80.6667H69.6667C73.7 80.6667 77 77.3667 77 73.3334V29.3334C77 25.3 73.7 22 69.6667 22ZM44 11C50.0867 11 55 15.9134 55 22H33C33 15.9134 37.9133 11 44 11ZM44 47.6667C33.88 47.6667 25.6667 39.4534 25.6667 29.3334H33C33 35.42 37.9133 40.3334 44 40.3334C50.0867 40.3334 55 35.42 55 29.3334H62.3333C62.3333 39.4534 54.12 47.6667 44 47.6667Z" fill="white"/>
</svg>
