<svg width="324" height="324" viewBox="0 0 324 324" fill="none" xmlns="http://www.w3.org/2000/svg">
<rect width="324" height="324" fill="#1C1C1C"/>
<path d="M195.5 167.583V206.667H117.333V128.5H145.362C145.641 124.536 146.59 120.795 148.042 117.333H117.333C111.192 117.333 106.167 122.358 106.167 128.5V206.667C106.167 212.808 111.192 217.833 117.333 217.833H195.5C201.642 217.833 206.667 212.808 206.667 206.667V178.75L195.5 167.583ZM187.125 195.5H125.708L141.062 175.791L152.006 188.968L167.36 169.203L187.125 195.5ZM202.758 144.636C205.215 140.728 206.667 136.205 206.667 131.292C206.667 117.389 195.444 106.167 181.542 106.167C167.639 106.167 156.417 117.389 156.417 131.292C156.417 145.194 167.639 156.417 181.486 156.417C186.399 156.417 190.977 154.965 194.83 152.508L212.25 169.928L220.178 162L202.758 144.636ZM181.542 145.25C173.837 145.25 167.583 138.997 167.583 131.292C167.583 123.587 173.837 117.333 181.542 117.333C189.247 117.333 195.5 123.587 195.5 131.292C195.5 138.997 189.247 145.25 181.542 145.25Z" fill="white"/>
</svg>
